# xmcd
#
# Track frame offsets:
#	150
#	14001
#	26553
#	36916
#	47310
#	56903
#	68918
#	79215
#	91037
#	100401
#	110455
#	123337
#	132720
#	143562
#	156049
#	166230
#	177340
#	190141
#	202217
#	213443
#	225482
#	236418
#	245859
#	256840
#	268405
#
# Disc length: 3704 seconds
#
# Revision: 0
# Processed by: cddbd v1.5.2PL0 Copyright (c) Steve Scherf et al.
# Submitted via: EasyCDDAExtractor 2010.6.0.0
#
DISCID=6a0e7619
DTITLE=Judy Martin - Straight Shootin' Cowgirl
DYEAR=1900
DGENRE=
TTITLE0=Keep A Little Sunshine In Your Smile
TTITLE1=I'll Never Be The Same Again
TTITLE2=I Hate To Say Goodbye To The Prairie
TTITLE3=Love That Wasn't Meant To Be
TTITLE4=Me And My Cowboy Sweetheart
TTITLE5=When The Sun Goes Down In Lardeo
TTITLE6=Put Me To Sleep With A Western Lullaby
TTITLE7=Down In My Cabin Home
TTITLE8=Shine On My Boots
TTITLE9=I'll Never Cry Again Over You
TTITLE10=I Want To Be A Real Cowboy Girl
TTITLE11=Hand In Hand We'll Walk Together Again
TTITLE12=Straight Shootin' Cowgirl
TTITLE13=God Bless You Sweetheart
TTITLE14=Little Rag Doll
TTITLE15=Texas Plains
TTITLE16=She Buckaroo
TTITLE17=East Bound Train
TTITLE18=I'll Never Love Again
TTITLE19=Sandy Headed Lad
TTITLE20=There's A Wreath On The Door
TTITLE21=I'm Getting A Moon's Eye View Of The World
TTITLE22=She's Somebody's Old Fashioned Sweetheart
TTITLE23=My Little One
TTITLE24=Letter Sealed With A Kiss
EXTD=
EXTT0=
EXTT1=
EXTT2=
EXTT3=
EXTT4=
EXTT5=
EXTT6=
EXTT7=
EXTT8=
EXTT9=
EXTT10=
EXTT11=
EXTT12=
EXTT13=
EXTT14=
EXTT15=
EXTT16=
EXTT17=
EXTT18=
EXTT19=
EXTT20=
EXTT21=
EXTT22=
EXTT23=
EXTT24=
PLAYORDER=
